<?xml version="1.0" encoding="iso-8859-1"?>
<!-- Generator: Adobe Illustrator 21.0.0, SVG Export Plug-In . SVG Version: 6.00 Build 0)  -->
<svg xmlns="http://www.w3.org/2000/svg" xmlns:xlink="http://www.w3.org/1999/xlink" version="1.1" id="Capa_1" x="0px" y="0px" viewBox="0 0 512 512" style="enable-background:new 0 0 512 512;" xml:space="preserve" width="512" height="512">
<g>
	<g>
		<g>
			<g>
				<g>
					<g>
						<g>
							<g>
								<g>
									<g>
										<g>
											<g>
												<circle style="fill:#FFE670;" cx="256" cy="256" r="256"/>
											</g>
										</g>
									</g>
								</g>
							</g>
						</g>
					</g>
				</g>
			</g>
		</g>
	</g>
	<path style="fill:#FFD400;" d="M512,256c0-29.317-4.942-57.477-14.015-83.708l-58.389-57.351   c-10.13-11.151-24.739-18.159-40.992-18.159c-26.069,0-47.918,18.016-53.808,42.272H76.333v246.784L195.216,504.72   C214.701,509.466,235.053,512,256,512C397.385,512,512,397.385,512,256z"/>
	<g>
		<g>
			<rect x="76.333" y="139.054" style="fill:#6D76E7;" width="335.381" height="246.784"/>
			<rect x="244.024" y="139.058" style="fill:#3A4DE3;" width="167.695" height="246.776"/>
			<polygon style="fill:#96A0F0;" points="411.715,385.838 244.024,224.477 76.333,385.838    "/>
			<g>
				<polygon style="fill:#7985EB;" points="411.719,385.834 244.024,385.834 244.024,224.477     "/>
			</g>
			<polygon style="fill:#00EFD1;" points="76.333,139.054 244.024,300.414 411.715,139.054    "/>
			<polygon style="fill:#00CEB4;" points="411.719,139.058 283.482,262.446 244.024,300.414 244.024,139.058    "/>
		</g>
		<circle style="fill:#FF0335;" cx="398.604" cy="152.165" r="55.383"/>
		<path style="fill:#C2001B;" d="M453.992,152.167c0,30.588-24.797,55.385-55.385,55.385V96.782    C429.194,96.782,453.992,121.579,453.992,152.167z"/>
		<path style="fill:#C2001B;" d="M453.992,152.167c0,30.588-24.797,55.385-55.385,55.385V96.782    C429.194,96.782,453.992,121.579,453.992,152.167z"/>
		<g>
			<path style="fill:#FFFFFF;" d="M407.179,148.294c3.313,0.59,5.993,2.178,8.053,4.767c2.054,2.592,3.085,5.758,3.085,9.498     c0,2.511-0.496,4.78-1.487,6.811c-0.985,2.028-2.374,3.75-4.167,5.168c-1.787,1.415-3.965,2.511-6.527,3.283     c-2.563,0.776-5.452,1.164-8.653,1.164c-4.063,0-7.656-0.655-10.779-1.963c-3.124-1.311-5.725-3.221-7.812-5.732l6.091-7.61     c1.389,1.761,3.045,3.124,4.969,4.085c1.924,0.962,4.323,1.441,7.212,1.441c3.254,0,5.738-0.639,7.453-1.921     c1.708-1.285,2.563-3.26,2.563-5.931c0-2.778-0.991-4.914-2.967-6.41c-1.976-1.497-4.969-2.243-8.973-2.243h-2.243v-8.014h2.484     c3.313,0,5.875-0.734,7.688-2.204c1.819-1.467,2.726-3.352,2.726-5.647c0-2.191-0.75-3.821-2.243-4.887     c-1.493-1.07-3.443-1.604-5.849-1.604c-2.458,0-4.663,0.561-6.612,1.682c-1.95,1.122-3.541,2.7-4.767,4.728l-6.73-7.532     c0.802-1.229,1.872-2.338,3.202-3.326c1.337-0.988,2.85-1.842,4.532-2.563c1.682-0.724,3.508-1.285,5.484-1.682     c1.976-0.401,4.01-0.603,6.091-0.603c2.726,0,5.21,0.349,7.453,1.043c2.243,0.695,4.18,1.656,5.81,2.882     c1.63,1.232,2.882,2.713,3.769,4.447c0.88,1.738,1.317,3.675,1.317,5.81c0,1.604-0.241,3.127-0.717,4.568     c-0.483,1.441-1.18,2.752-2.087,3.926c-0.906,1.177-1.989,2.165-3.241,2.967C410.048,147.492,408.672,148.026,407.179,148.294z"/>
		</g>
		<path style="fill:#FFF5CB;" d="M412.663,174.538c1.793-1.418,3.182-3.14,4.167-5.168c0.991-2.031,1.487-4.301,1.487-6.811    c0-3.74-1.03-6.906-3.085-9.498c-2.061-2.589-4.741-4.177-8.053-4.767c1.493-0.267,2.869-0.802,4.128-1.601    c1.252-0.802,2.335-1.79,3.241-2.967c0.906-1.174,1.604-2.484,2.087-3.926c0.476-1.441,0.717-2.964,0.717-4.568    c0-2.136-0.437-4.072-1.317-5.81c-0.887-1.735-2.139-3.215-3.769-4.447c-1.63-1.226-3.567-2.188-5.81-2.882    c-2.243-0.694-4.728-1.043-7.454-1.043c-0.132,0-0.263,0.008-0.395,0.01v9.333c2.03,0.111,3.726,0.613,5.044,1.557    c1.493,1.066,2.243,2.696,2.243,4.887c0,2.295-0.906,4.18-2.726,5.647c-1.193,0.968-2.718,1.61-4.562,1.94v8.495    c2.355,0.317,4.231,0.986,5.605,2.026c1.976,1.497,2.967,3.632,2.967,6.41c0,2.67-0.854,4.646-2.563,5.931    c-1.451,1.084-3.458,1.703-6.01,1.87v9.794c2.751-0.082,5.274-0.446,7.529-1.129C408.698,177.048,410.876,175.953,412.663,174.538    z"/>
	</g>
</g>















</svg>
