<?xml version="1.0" encoding="iso-8859-1"?>
<!-- Generator: Adobe Illustrator 21.0.0, SVG Export Plug-In . SVG Version: 6.00 Build 0)  -->
<svg xmlns="http://www.w3.org/2000/svg" xmlns:xlink="http://www.w3.org/1999/xlink" version="1.1" id="Capa_1" x="0px" y="0px" viewBox="0 0 512 512" style="enable-background:new 0 0 512 512;" xml:space="preserve" width="512" height="512">
<g>
	<g>
		<g>
			<g>
				<g>
					<g>
						<g>
							<g>
								<g>
									<g>
										<g>
											<g>
												<circle style="fill:#6D76E7;" cx="256" cy="256" r="256"/>
											</g>
										</g>
									</g>
								</g>
							</g>
						</g>
					</g>
				</g>
			</g>
		</g>
	</g>
	<g>
		<path style="fill:#283EE1;" d="M512,256c0-3.159-0.078-6.3-0.191-9.432L392.97,127.729C358.728,91.179,310.036,68.333,256,68.333    C152.355,68.333,68.333,152.355,68.333,256c0,54.035,22.846,102.728,59.395,136.97l118.839,118.839    C249.699,511.923,252.84,512,256,512C397.385,512,512,397.385,512,256z"/>
		<g>
			<g>
				<g>
					<g>
						<g>
							<g>
								<g>
									<g>
										<g>
											<g>
												<g>
													<g>
														<circle style="fill:#FFFFFF;" cx="256" cy="256" r="187.667"/>
													</g>
												</g>
											</g>
										</g>
									</g>
								</g>
							</g>
						</g>
					</g>
				</g>
			</g>
			<g>
				<g>
					<g>
						<g>
							<g>
								<g>
									<g>
										<g>
											<g>
												<g>
													<g>
														<path style="fill:#FFEC97;" d="M443.667,256c0,103.64-84.026,187.667-187.667,187.667V68.333                C359.64,68.333,443.667,152.36,443.667,256z"/>
													</g>
												</g>
											</g>
										</g>
									</g>
								</g>
							</g>
						</g>
					</g>
				</g>
			</g>
			<g>
				<g>
					<g>
						<g>
							<g>
								<g>
									<g>
										<g>
											<g>
												<g>
													<g>
														<circle style="fill:#FF9A00;" cx="256" cy="256" r="159.599"/>
													</g>
												</g>
											</g>
										</g>
									</g>
								</g>
							</g>
						</g>
					</g>
				</g>
			</g>
			<g>
				<g>
					<g>
						<g>
							<g>
								<g>
									<g>
										<g>
											<g>
												<g>
													<g>
														<path style="fill:#E67500;" d="M415.599,256c0,88.14-71.459,159.599-159.599,159.599V96.401                C344.14,96.401,415.599,167.86,415.599,256z"/>
													</g>
												</g>
											</g>
										</g>
									</g>
								</g>
							</g>
						</g>
					</g>
				</g>
			</g>
			<path style="fill:#FFFFFF;" d="M368,281.605v-51.21h-26.544c-1.749-5.846-4.077-11.441-6.926-16.715l18.771-18.771     l-36.211-36.211l-18.771,18.771c-5.274-2.848-10.869-5.177-16.715-6.926V144h-51.21v26.544     c-5.846,1.749-11.441,4.077-16.715,6.926l-18.771-18.771l-36.211,36.211l18.771,18.771c-2.848,5.274-5.177,10.869-6.926,16.715     H144v51.21h26.544c1.749,5.846,4.077,11.441,6.926,16.715l-18.771,18.771l36.211,36.211l18.771-18.771     c5.274,2.848,10.87,5.177,16.715,6.926V368h51.21v-26.544c5.846-1.749,11.441-4.077,16.715-6.926l18.771,18.771l36.211-36.211     l-18.771-18.771c2.848-5.274,5.177-10.869,6.926-16.715H368z M256,309.245c-29.406,0-53.245-23.838-53.245-53.245     s23.838-53.245,53.245-53.245s53.245,23.839,53.245,53.245S285.406,309.245,256,309.245z"/>
			<path style="fill:#FFF5CB;" d="M368,281.6v-51.2h-26.54c-1.75-5.85-4.08-11.45-6.93-16.72l18.77-18.77l-36.21-36.21l-18.77,18.77     c-5.27-2.85-10.87-5.18-16.72-6.93V144H256v58.76c29.41,0,53.24,23.83,53.24,53.24c0,29.41-23.83,53.24-53.24,53.24V368h25.6     v-26.54c5.85-1.75,11.45-4.08,16.72-6.93l18.77,18.77l36.21-36.21l-18.77-18.77c2.85-5.27,5.18-10.87,6.93-16.72H368z"/>
			<path style="fill:#77FEF6;" d="M256,191.25c-35.76,0-64.75,28.99-64.75,64.75s28.99,64.75,64.75,64.75s64.75-28.99,64.75-64.75     S291.76,191.25,256,191.25z M256,302.5c-25.681,0-46.5-20.819-46.5-46.5c0-25.681,20.819-46.5,46.5-46.5s46.5,20.819,46.5,46.5     C302.5,281.681,281.681,302.5,256,302.5z"/>
			<path style="fill:#00DFC1;" d="M256,191.25v18.25c25.68,0,46.5,20.82,46.5,46.5s-20.82,46.5-46.5,46.5v18.25     c35.76,0,64.75-28.99,64.75-64.75S291.76,191.25,256,191.25z"/>
		</g>
	</g>
</g>















</svg>
